<svg xmlns="http://www.w3.org/2000/svg" xml:space="preserve" id="Layer_1" x="0" y="0" style="enable-background:new 0 0 278 37.1" version="1.1" viewBox="0 0 278 37.1"><style type="text/css">.st0{fill:#0082bf}</style><path d="M2 10.6c0-.5-.3-.7-.7-.7H0V6.4h3.6c1.5 0 2 .7 2 1.6v.6h.1S7.1 6 10.9 6c4.4 0 7.3 3.5 7.3 8.5 0 5.2-3.2 8.5-7.5 8.5C7.5 23 6 20.9 6 20.9h-.1s.1.6.1 1.4V29H2V10.6zm7.9 9.1c2.2 0 4.1-1.8 4.1-5.1 0-3.1-1.7-5.1-4.1-5.1-2.1 0-4.1 1.5-4.1 5.1.1 2.6 1.5 5.1 4.1 5.1zM29 12.5h.5v-.1c0-2.3-.9-3.2-3-3.2-.7 0-2.2.2-2.2 1.1v.9h-3.8V9.4c0-3 4.3-3.4 6-3.4 5.4 0 7 2.8 7 6.5v6.1c0 .4.3.7.7.7h1.3v3.4h-3.6c-1.5 0-2.1-.8-2.1-1.8v-.7h-.1s-1.2 2.9-4.9 2.9c-2.9 0-5.6-1.8-5.6-5.1.1-5.1 7.1-5.5 9.8-5.5zm-3.2 7.4c2.2 0 3.7-2.3 3.7-4.3v-.4h-.7c-2.1 0-5.5.3-5.5 2.6.1 1.1.9 2.1 2.5 2.1z" class="st0"/><path d="M39 26c1.1 0 2.1-.7 2.7-2.1l.5-1.2-5.4-12.2c-.2-.5-.4-.6-.9-.6h-.5V6.4h2.7c1.2 0 1.7.4 2.1 1.5l3.2 8.2c.3.8.6 2.2.6 2.2h.1s.3-1.3.5-2.2l2.8-8.2c.4-1.1 1.1-1.5 2.2-1.5h2.8v3.5h-.5c-.5 0-.7.1-.9.6l-5.9 14.7c-1.2 2.9-3.5 4.3-5.9 4.3-2.6 0-4.1-1.7-4.1-1.7l1.6-2.9c-.1 0 .9 1.1 2.3 1.1zM54.5 4.2c0-.5-.3-.7-.7-.7h-1.3V0h3.9c1.5 0 2.2.7 2.2 2.2v16.4c0 .4.3.7.7.7h1.2v3.4h-3.8c-1.5 0-2.2-.6-2.2-2.2V4.2zM69.7 6c4.7 0 7.2 3.4 7.2 7.7 0 .5-.1 1.5-.1 1.5H65.6c.3 2.9 2.4 4.4 4.9 4.4 2.6 0 4.6-1.8 4.6-1.8l1.7 2.8s-2.5 2.5-6.6 2.5c-5.4 0-8.8-3.9-8.8-8.5 0-5.1 3.4-8.6 8.3-8.6zm3.1 6.4c-.1-2-1.4-3.3-3.1-3.3-2.1 0-3.6 1.2-4 3.3h7.1zM80.1 17.5s2.1 2.4 4.9 2.4c1.2 0 2.2-.5 2.2-1.6 0-2.3-8.6-2.3-8.6-7.5 0-3.3 2.9-4.8 6.3-4.8 2.2 0 5.7.7 5.7 3.4v1.7H87v-.8c0-.8-1.2-1.2-2-1.2-1.4 0-2.4.5-2.4 1.5 0 2.6 8.7 2 8.7 7.5 0 3.1-2.7 5-6.3 5-4.5 0-6.8-2.9-6.8-2.9l1.9-2.7zM94.3 17.5s2.1 2.4 4.9 2.4c1.2 0 2.2-.5 2.2-1.6 0-2.3-8.6-2.3-8.6-7.5 0-3.3 2.9-4.8 6.3-4.8 2.2 0 5.7.7 5.7 3.4v1.7h-3.6v-.8c0-.8-1.2-1.2-2-1.2-1.4 0-2.4.5-2.4 1.5 0 2.6 8.7 2 8.7 7.5 0 3.1-2.7 5-6.3 5-4.5 0-6.8-2.9-6.8-2.9l1.9-2.7z" class="st0"/><path d="M109.7 10.6c0-.5-.3-.7-.7-.7h-1.3V6.4h3.6c1.5 0 2 .7 2 1.6v.6h.1s1.4-2.6 5.2-2.6c4.4 0 7.3 3.5 7.3 8.5 0 5.2-3.2 8.5-7.5 8.5-3.2 0-4.7-2.1-4.7-2.1h-.1s.1.6.1 1.4V29h-4V10.6zm7.9 9.1c2.2 0 4.1-1.8 4.1-5.1 0-3.1-1.7-5.1-4.1-5.1-2.1 0-4.1 1.5-4.1 5.1.1 2.6 1.5 5.1 4.1 5.1zM128.7 10.6c0-.5-.3-.7-.7-.7h-1.3V6.4h3.7c1.4 0 2.2.6 2.2 2v1c0 .6-.1 1-.1 1h.1c.7-2.3 2.7-4.2 5.2-4.2.4 0 .7.1.7.1v4s-.4-.1-1-.1c-1.7 0-3.7 1-4.4 3.4-.2.8-.4 1.7-.4 2.7v6.5h-4V10.6zM147.8 6c5 0 9 3.6 9 8.5 0 5-4 8.5-9 8.5s-8.9-3.5-8.9-8.5c0-4.9 3.9-8.5 8.9-8.5zm0 13.6c2.7 0 4.9-2 4.9-5.1 0-3-2.2-5.1-4.9-5.1-2.6 0-4.8 2.1-4.8 5.1 0 3.1 2.2 5.1 4.8 5.1zM159.6 10.6c0-.5-.3-.7-.7-.7h-1.3V6.4h3.7c1.4 0 2.1.7 2.1 1.8v1.2h.1c.8-1.6 2.7-3.4 5.3-3.4 2.5 0 4.1 1.2 4.8 3.4h.1c.9-1.8 3-3.4 5.6-3.4 3.4 0 5.3 1.9 5.3 6.2v6.4c0 .4.3.7.7.7h1.2v3.4h-3.8c-1.5 0-2.2-.6-2.2-2.2V13c0-1.9-.4-3.3-2.2-3.3-2 0-3.5 1.7-3.9 3.7-.2.6-.3 1.3-.3 2.1v7.2H170V13c0-1.8-.3-3.3-2.2-3.3-2 0-3.4 1.7-3.9 3.8-.2.6-.3 1.3-.3 2v7.2h-4V10.6zM196.3 6c5 0 9 3.6 9 8.5 0 5-4 8.5-9 8.5s-8.9-3.5-8.9-8.5c0-4.9 3.9-8.5 8.9-8.5zm0 13.6c2.7 0 4.9-2 4.9-5.1 0-3-2.2-5.1-4.9-5.1-2.6 0-4.8 2.1-4.8 5.1 0 3.1 2.2 5.1 4.8 5.1zM208.2 9.6h-2.1V6.4h2.2V2h4v4.4h3.7v3.2h-3.7v6.6c0 2.7 2.1 3.1 3.2 3.1.4 0 .7-.1.7-.1v3.5s-.5.1-1.2.1c-2.3 0-6.8-.7-6.8-6.1V9.6zM219.3 10.6c0-.5-.3-.7-.7-.7h-1.3V6.4h3.9c1.5 0 2.1.7 2.1 2.2v10c0 .4.3.7.7.7h1.3v3.4h-3.9c-1.5 0-2.1-.6-2.1-2.2v-9.9zm.2-10.6h3.5v3.7h-3.5V0zM235.2 6c5 0 9 3.6 9 8.5 0 5-4 8.5-9 8.5s-8.9-3.5-8.9-8.5c0-4.9 4-8.5 8.9-8.5zm0 13.6c2.7 0 4.9-2 4.9-5.1 0-3-2.2-5.1-4.9-5.1-2.6 0-4.8 2.1-4.8 5.1 0 3.1 2.2 5.1 4.8 5.1zM247 10.6c0-.5-.3-.7-.7-.7H245V6.4h3.7c1.4 0 2.1.7 2.1 1.8v.5c0 .4-.1.7-.1.7h.1c.7-1.4 2.5-3.4 5.8-3.4 3.6 0 5.7 1.9 5.7 6.2v6.4c0 .4.3.7.7.7h1.3v3.4h-3.9c-1.5 0-2.2-.6-2.2-2.2V13c0-2-.5-3.3-2.6-3.3-2.2 0-3.8 1.4-4.4 3.3-.2.7-.3 1.4-.3 2.2v7.5h-4V10.6zM266.9 17.5s2.1 2.4 4.9 2.4c1.2 0 2.2-.5 2.2-1.6 0-2.3-8.6-2.3-8.6-7.5 0-3.3 2.9-4.8 6.3-4.8 2.2 0 5.7.7 5.7 3.4v1.7h-3.6v-.8c0-.8-1.2-1.2-2-1.2-1.4 0-2.4.5-2.4 1.5 0 2.6 8.7 2 8.7 7.5 0 3.1-2.7 5-6.3 5-4.5 0-6.8-2.9-6.8-2.9l1.9-2.7zM118.5 37.1v-7.7h3c1.2 0 1.8.5 1.8 1.6v.9c0 .6-.2 1-.9 1.3.7.1 1.1.6 1.1 1.4v.9c0 1.1-.8 1.7-1.9 1.7h-3.1zm3.8-6.1c0-.5-.3-.7-.9-.7h-1.9v2.5h1.8c.8 0 1-.3 1-.9V31zm.2 3.6c0-.6-.3-1-1.1-1h-1.9v2.6h2c.7 0 1.1-.3 1.1-.9v-.7zM127.6 32.2c-.5.3-1.1.7-1.6 1v3.9h-1v-5.7h.8l.1.8c.4-.3 1-.7 1.6-.9l.1.9zM132.6 37.1h-.8l-.1-.4c-.5.3-1.1.5-1.8.5-1.1 0-1.5-.6-1.5-1.6 0-1.2.6-1.6 1.7-1.6h1.5v-.9c0-.7-.3-1-1.2-1-.5 0-1.3.1-1.7.2l-.1-.8c.5-.1 1.3-.2 1.9-.2 1.6 0 2.1.6 2.1 1.8v4zm-1-2.3h-1.4c-.6 0-.8.2-.8.8 0 .6.1.8.8.8.5 0 1-.2 1.5-.5v-1.1zM137.7 37.1v-4.3c0-.4-.2-.5-.5-.5-.4 0-1.3.3-1.9.6v4.3h-1v-5.7h.8l.1.5c.6-.3 1.6-.6 2.3-.6.9 0 1.2.6 1.2 1.4v4.3h-1zM140.3 33.2c0-1.1.5-1.8 1.8-1.8.5 0 1.2.1 1.6.2v-2.4l1-.1v8.1h-.8l-.1-.5c-.5.4-1.1.6-1.9.6-1.1 0-1.6-.6-1.6-1.7v-2.4zm3.4-.8c-.5-.1-1.2-.2-1.6-.2-.7 0-.9.3-.9 1v2.3c0 .6.2.9.9.9.6 0 1.2-.3 1.6-.7v-3.3zM148.6 36.4c.6 0 1.2-.1 1.8-.3l.1.8c-.5.2-1.3.3-2 .3-1.7 0-2.2-.8-2.2-2.1v-1.7c0-1.2.5-2.1 2.2-2.1 1.7 0 2.1 1 2.1 2.1v1.2h-3.4v.5c.1.9.3 1.3 1.4 1.3zm-1.3-2.5h2.4v-.5c0-.8-.3-1.2-1.2-1.2-.9 0-1.2.4-1.2 1.2v.5zM152 33.2c0-1.1.5-1.8 1.8-1.8.5 0 1.2.1 1.6.2v-2.4l1-.1v8.1h-.8l-.1-.5c-.5.4-1.1.6-1.9.6-1.1 0-1.6-.6-1.6-1.7v-2.4zm3.4-.8c-.5-.1-1.2-.2-1.6-.2-.7 0-.9.3-.9 1v2.3c0 .6.2.9.9.9.6 0 1.2-.3 1.6-.7v-3.3zM166.2 29.4V35c0 1.3-.7 2.3-2.7 2.3s-2.7-1-2.7-2.3v-5.6h1v5.5c0 1 .5 1.5 1.7 1.5s1.7-.5 1.7-1.5v-5.5h1zM171.5 37.1v-4.3c0-.4-.2-.5-.5-.5-.4 0-1.3.3-1.9.6v4.3h-1v-5.7h.8l.1.5c.6-.3 1.6-.6 2.3-.6.9 0 1.2.6 1.2 1.4v4.3h-1zM174.2 30.6v-1.4h1v1.4h-1zm0 6.5v-5.7h1v5.7h-1zM180.2 29.8c-.3-.1-.7-.1-.9-.1-.6 0-.8.2-.8.8v1h1.6l-.1.8h-1.5v4.8h-1v-4.8h-1v-.8h1v-1c0-1 .6-1.5 1.6-1.5.4 0 .8 0 1.1.2v.6zM183.2 37.2c-1.6 0-2.3-.9-2.3-2.1v-1.6c0-1.2.7-2.1 2.3-2.1 1.6 0 2.3.9 2.3 2.1v1.6c0 1.2-.7 2.1-2.3 2.1zm0-5c-.9 0-1.3.4-1.3 1.2v1.7c0 .8.4 1.2 1.3 1.2s1.3-.4 1.3-1.2v-1.7c0-.8-.4-1.2-1.3-1.2zM189.6 32.2c-.5.3-1.1.7-1.6 1v3.9h-1v-5.7h.8l.1.8c.4-.3 1-.7 1.6-.9l.1.9zM197.4 37.1v-4.3c0-.4-.2-.5-.5-.5-.5 0-1.3.3-1.9.6v4.3h-1v-4.3c0-.4-.2-.5-.5-.5-.4 0-1.3.3-1.9.6v4.3h-1v-5.7h.8l.1.5c.6-.3 1.6-.6 2.3-.6.6 0 .9.2 1.1.6.7-.3 1.6-.6 2.3-.6.9 0 1.2.6 1.2 1.4v4.3h-1zM201.8 37.2c-.6 0-1.3-.1-1.8-.3l.1-.8c.5.1 1.1.2 1.6.2.9 0 1-.2 1-.8 0-.6 0-.7-1.2-1-1.4-.3-1.5-.6-1.5-1.8 0-1 .5-1.5 1.9-1.5.5 0 1.1.1 1.6.2l-.1.8c-.5-.1-1.1-.2-1.6-.2-.8 0-1 .2-1 .7 0 .6 0 .7 1 1 1.6.4 1.8.6 1.8 1.7.1 1.3-.2 1.8-1.8 1.8z"/><path d="M207.6 33.9h1.9v-2h.9v2h1.9v.8h-1.9v2h-.9v-2h-1.9v-.8z" class="st0"/><path d="m217.5 30.9-.2 6.3h-1l.3-7.7h1.3l2.2 6 2.2-6h1.3l.3 7.7h-1l-.2-6.3-2 5.3h-1.3l-1.9-5.3zM227.7 36.4c.6 0 1.2-.1 1.8-.3l.1.8c-.5.2-1.3.3-2 .3-1.7 0-2.2-.8-2.2-2.1v-1.7c0-1.2.5-2.1 2.2-2.1 1.7 0 2.1 1 2.1 2.1v1.2h-3.4v.5c0 .9.3 1.3 1.4 1.3zm-1.4-2.5h2.4v-.5c0-.8-.3-1.2-1.2-1.2-.9 0-1.2.4-1.2 1.2v.5zM233.8 32.2c-.5.3-1.1.7-1.6 1v3.9h-1v-5.7h.8l.1.8c.4-.3 1-.7 1.6-.9l.1.9zM234.5 35.2v-1.8c0-1.3.5-2.1 2.3-2.1.5 0 1.1.1 1.3.2l-.1.8c-.4-.1-.8-.1-1.2-.1-1 0-1.3.3-1.3 1.2v1.8c0 .9.3 1.2 1.3 1.2.4 0 .8 0 1.2-.1l.1.8c-.3.1-.9.2-1.4.2-1.8-.1-2.2-.8-2.2-2.1zM243 37.1v-4.3c0-.4-.2-.5-.5-.5-.4 0-1.3.3-1.9.6v4.3h-1v-8l1-.1V32c.6-.3 1.5-.6 2.2-.6.9 0 1.2.6 1.2 1.4v4.3h-1zM249.8 37.1h-.8l-.1-.4c-.5.3-1.1.5-1.8.5-1.1 0-1.5-.6-1.5-1.6 0-1.2.6-1.6 1.7-1.6h1.5v-.9c0-.7-.3-1-1.2-1-.5 0-1.3.1-1.7.2l-.1-.8c.5-.1 1.3-.2 1.9-.2 1.6 0 2.1.6 2.1 1.8v4zm-1-2.3h-1.4c-.6 0-.8.2-.8.8 0 .6.1.8.8.8.5 0 1-.2 1.5-.5v-1.1zM254.9 37.1v-4.3c0-.4-.2-.5-.5-.5-.4 0-1.3.3-1.9.6v4.3h-1v-5.7h.8l.1.5c.6-.3 1.6-.6 2.3-.6.9 0 1.2.6 1.2 1.4v4.3h-1zM257.4 33.2c0-1.1.5-1.8 1.8-1.8.5 0 1.2.1 1.6.2v-2.4l1-.1v8.1h-.8l-.1-.5c-.5.4-1.1.6-1.9.6-1.1 0-1.6-.6-1.6-1.7v-2.4zm3.5-.8c-.5-.1-1.2-.2-1.6-.2-.7 0-.9.3-.9 1v2.3c0 .6.2.9.9.9.6 0 1.2-.3 1.6-.7v-3.3zM263.7 30.6v-1.4h1v1.4h-1zm0 6.5v-5.7h1v5.7h-1zM268.1 37.2c-.6 0-1.3-.1-1.8-.3l.1-.8c.5.1 1.1.2 1.6.2.9 0 1-.2 1-.8 0-.6 0-.7-1.2-1-1.4-.3-1.5-.6-1.5-1.8 0-1 .5-1.5 1.9-1.5.5 0 1.1.1 1.6.2l-.1.8c-.5-.1-1.1-.2-1.6-.2-.8 0-1 .2-1 .7 0 .6 0 .7 1 1 1.6.4 1.8.6 1.8 1.7.2 1.3-.2 1.8-1.8 1.8zM273.7 36.4c.6 0 1.2-.1 1.8-.3l.1.8c-.5.2-1.3.3-2 .3-1.7 0-2.2-.8-2.2-2.1v-1.7c0-1.2.5-2.1 2.2-2.1 1.7 0 2.1 1 2.1 2.1v1.2h-3.4v.5c0 .9.3 1.3 1.4 1.3zm-1.4-2.5h2.4v-.5c0-.8-.3-1.2-1.2-1.2-.9 0-1.2.4-1.2 1.2v.5z"/></svg>